<svg xmlns="http://www.w3.org/2000/svg" viewBox="0 0 256 256" width="256" height="256"><rect width="256" height="256" fill="#171614"/><g transform="translate(18 18)"><g transform="translate(110,110)"><circle r="100" fill="#E8DECA"/><clipPath id="iso"><circle r="86"/></clipPath><g clip-path="url(#iso)"><rect x="-10" y="-78" width="20" height="178" fill="#171614"/><rect x="-6.95" y="-71.00" width="2.6" height="4.2" fill="#E8DECA"/><rect x="-1.30" y="-71.00" width="2.6" height="4.2" fill="#E8DECA"/><rect x="4.35" y="-71.00" width="2.6" height="4.2" fill="#E8DECA"/><rect x="-6.95" y="-62.00" width="2.6" height="4.2" fill="#E8DECA"/><rect x="-1.30" y="-62.00" width="2.6" height="4.2" fill="#E8DECA"/><rect x="4.35" y="-62.00" width="2.6" height="4.2" fill="#E8DECA"/><rect x="-6.95" y="-53.00" width="2.6" height="4.2" fill="#E8DECA"/><rect x="-1.30" y="-53.00" width="2.6" height="4.2" fill="#E8DECA"/><rect x="4.35" y="-53.00" width="2.6" height="4.2" fill="#E8DECA"/><rect x="-6.95" y="-44.00" width="2.6" height="4.2" fill="#E8DECA"/><rect x="-1.30" y="-44.00" width="2.6" height="4.2" fill="#E8DECA"/><rect x="4.35" y="-44.00" width="2.6" height="4.2" fill="#E8DECA"/><rect x="-6.95" y="-35.00" width="2.6" height="4.2" fill="#E8DECA"/><rect x="-1.30" y="-35.00" width="2.6" height="4.2" fill="#E8DECA"/><rect x="4.35" y="-35.00" width="2.6" height="4.2" fill="#E8DECA"/><rect x="-6.95" y="-26.00" width="2.6" height="4.2" fill="#E8DECA"/><rect x="-1.30" y="-26.00" width="2.6" height="4.2" fill="#E8DECA"/><rect x="4.35" y="-26.00" width="2.6" height="4.2" fill="#E8DECA"/><rect x="-6.95" y="-17.00" width="2.6" height="4.2" fill="#E8DECA"/><rect x="-1.30" y="-17.00" width="2.6" height="4.2" fill="#E8DECA"/><rect x="4.35" y="-17.00" width="2.6" height="4.2" fill="#E8DECA"/><rect x="-6.95" y="-8.00" width="2.6" height="4.2" fill="#E8DECA"/><rect x="-1.30" y="-8.00" width="2.6" height="4.2" fill="#E8DECA"/><rect x="4.35" y="-8.00" width="2.6" height="4.2" fill="#E8DECA"/><rect x="-6.95" y="1.00" width="2.6" height="4.2" fill="#E8DECA"/><rect x="-1.30" y="1.00" width="2.6" height="4.2" fill="#E8DECA"/><rect x="4.35" y="1.00" width="2.6" height="4.2" fill="#E8DECA"/><rect x="-6.95" y="10.00" width="2.6" height="4.2" fill="#E8DECA"/><rect x="-1.30" y="10.00" width="2.6" height="4.2" fill="#E8DECA"/><rect x="4.35" y="10.00" width="2.6" height="4.2" fill="#E8DECA"/><rect x="-6.95" y="19.00" width="2.6" height="4.2" fill="#E8DECA"/><rect x="-1.30" y="19.00" width="2.6" height="4.2" fill="#E8DECA"/><rect x="4.35" y="19.00" width="2.6" height="4.2" fill="#E8DECA"/><rect x="-6.95" y="28.00" width="2.6" height="4.2" fill="#E8DECA"/><rect x="-1.30" y="28.00" width="2.6" height="4.2" fill="#E8DECA"/><rect x="4.35" y="28.00" width="2.6" height="4.2" fill="#E8DECA"/><rect x="-6.95" y="37.00" width="2.6" height="4.2" fill="#E8DECA"/><rect x="-1.30" y="37.00" width="2.6" height="4.2" fill="#E8DECA"/><rect x="4.35" y="37.00" width="2.6" height="4.2" fill="#E8DECA"/><rect x="-29" y="-44" width="16.5" height="144" fill="#171614"/><rect x="-25.23" y="-37.00" width="2.6" height="4.2" fill="#E8DECA"/><rect x="-18.87" y="-37.00" width="2.6" height="4.2" fill="#E8DECA"/><rect x="-25.23" y="-28.00" width="2.6" height="4.2" fill="#E8DECA"/><rect x="-18.87" y="-28.00" width="2.6" height="4.2" fill="#E8DECA"/><rect x="-25.23" y="-19.00" width="2.6" height="4.2" fill="#E8DECA"/><rect x="-18.87" y="-19.00" width="2.6" height="4.2" fill="#E8DECA"/><rect x="-25.23" y="-10.00" width="2.6" height="4.2" fill="#E8DECA"/><rect x="-18.87" y="-10.00" width="2.6" height="4.2" fill="#E8DECA"/><rect x="-25.23" y="-1.00" width="2.6" height="4.2" fill="#E8DECA"/><rect x="-18.87" y="-1.00" width="2.6" height="4.2" fill="#E8DECA"/><rect x="-25.23" y="8.00" width="2.6" height="4.2" fill="#E8DECA"/><rect x="-18.87" y="8.00" width="2.6" height="4.2" fill="#E8DECA"/><rect x="-25.23" y="17.00" width="2.6" height="4.2" fill="#E8DECA"/><rect x="-18.87" y="17.00" width="2.6" height="4.2" fill="#E8DECA"/><rect x="-25.23" y="26.00" width="2.6" height="4.2" fill="#E8DECA"/><rect x="-18.87" y="26.00" width="2.6" height="4.2" fill="#E8DECA"/><rect x="-25.23" y="35.00" width="2.6" height="4.2" fill="#E8DECA"/><rect x="-18.87" y="35.00" width="2.6" height="4.2" fill="#E8DECA"/><rect x="-25.23" y="44.00" width="2.6" height="4.2" fill="#E8DECA"/><rect x="-18.87" y="44.00" width="2.6" height="4.2" fill="#E8DECA"/><rect x="12.5" y="-44" width="16.5" height="144" fill="#171614"/><rect x="16.27" y="-37.00" width="2.6" height="4.2" fill="#E8DECA"/><rect x="22.63" y="-37.00" width="2.6" height="4.2" fill="#E8DECA"/><rect x="16.27" y="-28.00" width="2.6" height="4.2" fill="#E8DECA"/><rect x="22.63" y="-28.00" width="2.6" height="4.2" fill="#E8DECA"/><rect x="16.27" y="-19.00" width="2.6" height="4.2" fill="#E8DECA"/><rect x="22.63" y="-19.00" width="2.6" height="4.2" fill="#E8DECA"/><rect x="16.27" y="-10.00" width="2.6" height="4.2" fill="#E8DECA"/><rect x="22.63" y="-10.00" width="2.6" height="4.2" fill="#E8DECA"/><rect x="16.27" y="-1.00" width="2.6" height="4.2" fill="#E8DECA"/><rect x="22.63" y="-1.00" width="2.6" height="4.2" fill="#E8DECA"/><rect x="16.27" y="8.00" width="2.6" height="4.2" fill="#E8DECA"/><rect x="22.63" y="8.00" width="2.6" height="4.2" fill="#E8DECA"/><rect x="16.27" y="17.00" width="2.6" height="4.2" fill="#E8DECA"/><rect x="22.63" y="17.00" width="2.6" height="4.2" fill="#E8DECA"/><rect x="16.27" y="26.00" width="2.6" height="4.2" fill="#E8DECA"/><rect x="22.63" y="26.00" width="2.6" height="4.2" fill="#E8DECA"/><rect x="16.27" y="35.00" width="2.6" height="4.2" fill="#E8DECA"/><rect x="22.63" y="35.00" width="2.6" height="4.2" fill="#E8DECA"/><rect x="16.27" y="44.00" width="2.6" height="4.2" fill="#E8DECA"/><rect x="22.63" y="44.00" width="2.6" height="4.2" fill="#E8DECA"/><rect x="-48" y="-10" width="16.5" height="110" fill="#171614"/><rect x="-44.23" y="-3.00" width="2.6" height="4.2" fill="#E8DECA"/><rect x="-37.87" y="-3.00" width="2.6" height="4.2" fill="#E8DECA"/><rect x="-44.23" y="6.00" width="2.6" height="4.2" fill="#E8DECA"/><rect x="-37.87" y="6.00" width="2.6" height="4.2" fill="#E8DECA"/><rect x="-44.23" y="15.00" width="2.6" height="4.2" fill="#E8DECA"/><rect x="-37.87" y="15.00" width="2.6" height="4.2" fill="#E8DECA"/><rect x="-44.23" y="24.00" width="2.6" height="4.2" fill="#E8DECA"/><rect x="-37.87" y="24.00" width="2.6" height="4.2" fill="#E8DECA"/><rect x="-44.23" y="33.00" width="2.6" height="4.2" fill="#E8DECA"/><rect x="-37.87" y="33.00" width="2.6" height="4.2" fill="#E8DECA"/><rect x="-44.23" y="42.00" width="2.6" height="4.2" fill="#E8DECA"/><rect x="-37.87" y="42.00" width="2.6" height="4.2" fill="#E8DECA"/><rect x="31.5" y="-10" width="16.5" height="110" fill="#171614"/><rect x="35.27" y="-3.00" width="2.6" height="4.2" fill="#E8DECA"/><rect x="41.63" y="-3.00" width="2.6" height="4.2" fill="#E8DECA"/><rect x="35.27" y="6.00" width="2.6" height="4.2" fill="#E8DECA"/><rect x="41.63" y="6.00" width="2.6" height="4.2" fill="#E8DECA"/><rect x="35.27" y="15.00" width="2.6" height="4.2" fill="#E8DECA"/><rect x="41.63" y="15.00" width="2.6" height="4.2" fill="#E8DECA"/><rect x="35.27" y="24.00" width="2.6" height="4.2" fill="#E8DECA"/><rect x="41.63" y="24.00" width="2.6" height="4.2" fill="#E8DECA"/><rect x="35.27" y="33.00" width="2.6" height="4.2" fill="#E8DECA"/><rect x="41.63" y="33.00" width="2.6" height="4.2" fill="#E8DECA"/><rect x="35.27" y="42.00" width="2.6" height="4.2" fill="#E8DECA"/><rect x="41.63" y="42.00" width="2.6" height="4.2" fill="#E8DECA"/><rect x="-1.6" y="-90" width="3.2" height="13" fill="#171614"/></g><circle r="86" fill="none" stroke="#171614" stroke-width="0"/></g></g></svg>
